<svg width="48" height="48" viewBox="0 0 48 48" fill="none" xmlns="http://www.w3.org/2000/svg">
<path d="M22.329 37.0723C22.0186 37.0723 21.7152 37.1643 21.4572 37.3367C21.1991 37.5092 20.998 37.7542 20.8792 38.041C20.7605 38.3277 20.7294 38.6432 20.7899 38.9476C20.8505 39.252 20.9999 39.5316 21.2194 39.7511C21.4388 39.9705 21.7185 40.12 22.0228 40.1805C22.3272 40.2411 22.6428 40.21 22.9295 40.0912C23.2162 39.9725 23.4613 39.7714 23.6337 39.5133C23.8062 39.2552 23.8982 38.9518 23.8982 38.6415C23.8982 38.2253 23.7329 37.8262 23.4386 37.5319C23.1443 37.2376 22.7452 37.0723 22.329 37.0723Z" fill="#00D0C8"/>
<path d="M26.4733 24.5874L26.0581 24.1722C26.0414 24.1543 26.0212 24.1399 25.9987 24.1301C25.9762 24.1203 25.9519 24.1152 25.9273 24.1152C25.9028 24.1152 25.8785 24.1203 25.856 24.1301C25.8335 24.1399 25.8133 24.1543 25.7966 24.1722L24.0447 25.92C24.028 25.9379 24.0077 25.9523 23.9852 25.9621C23.9627 25.9719 23.9385 25.977 23.9139 25.977C23.8894 25.977 23.8651 25.9719 23.8426 25.9621C23.8201 25.9523 23.7999 25.9379 23.7831 25.92L22.0188 24.1722C22.0021 24.1543 21.9819 24.1399 21.9594 24.1301C21.9369 24.1203 21.9126 24.1152 21.888 24.1152C21.8635 24.1152 21.8392 24.1203 21.8167 24.1301C21.7942 24.1399 21.774 24.1543 21.7573 24.1722L21.3422 24.5874C21.3246 24.6047 21.3106 24.6254 21.3011 24.6482C21.2916 24.671 21.2867 24.6955 21.2867 24.7202C21.2867 24.7449 21.2916 24.7694 21.3011 24.7922C21.3106 24.815 21.3246 24.8357 21.3422 24.8531L23.094 26.6008C23.1283 26.6357 23.1474 26.6827 23.1474 26.7316C23.1474 26.7804 23.1283 26.8274 23.094 26.8623L21.3422 28.6142C21.3242 28.6309 21.3098 28.6511 21.3 28.6736C21.2902 28.6961 21.2852 28.7204 21.2852 28.745C21.2852 28.7695 21.2902 28.7938 21.3 28.8163C21.3098 28.8388 21.3242 28.859 21.3422 28.8757L21.7573 29.2909C21.7922 29.3251 21.8391 29.3443 21.888 29.3443C21.9369 29.3443 21.9839 29.3251 22.0188 29.2909L23.7666 27.539C23.8015 27.5048 23.8484 27.4856 23.8973 27.4856C23.9462 27.4856 23.9932 27.5048 24.0281 27.539L25.78 29.2909C25.8149 29.3251 25.8618 29.3443 25.9107 29.3443C25.9596 29.3443 26.0066 29.3251 26.0415 29.2909L26.4566 28.8757C26.4909 28.8408 26.51 28.7939 26.51 28.745C26.51 28.6961 26.4909 28.6491 26.4566 28.6142L24.7048 26.8623C24.6705 26.8274 24.6514 26.7804 24.6514 26.7316C24.6514 26.6827 24.6705 26.6357 24.7048 26.6008L26.4566 24.8531C26.4902 24.817 26.5089 24.7695 26.5089 24.7202C26.5089 24.6709 26.4902 24.6235 26.4566 24.5874" fill="#00D0C8"/>
<path d="M10.1652 7.52084C10.1168 7.52084 10.0703 7.5016 10.0361 7.46734C10.0018 7.43309 9.98255 7.38663 9.98255 7.33818V3.18681C9.98255 3.13727 9.96287 3.08975 9.92784 3.05472C9.8928 3.01968 9.84528 3 9.79574 3H8.96546C8.91592 3 8.86841 3.01968 8.83338 3.05472C8.79834 3.08975 8.77866 3.13727 8.77866 3.18681V7.33818C8.77757 7.387 8.75741 7.43346 8.7225 7.4676C8.68758 7.50174 8.64068 7.52085 8.59184 7.52084H4.44047C4.39165 7.52193 4.3452 7.54209 4.31106 7.577C4.27692 7.61192 4.2578 7.65882 4.25781 7.70765V8.53793C4.2578 8.58676 4.27692 8.63366 4.31106 8.66858C4.3452 8.70349 4.39165 8.72365 4.44047 8.72474H8.59184C8.64139 8.72474 8.68891 8.74442 8.72394 8.77945C8.75898 8.81449 8.77866 8.862 8.77866 8.91155V13.0629C8.77974 13.1117 8.7999 13.1582 8.83482 13.1923C8.86974 13.2265 8.91663 13.2456 8.96546 13.2456H9.79574C9.84457 13.2456 9.89147 13.2265 9.92639 13.1923C9.96131 13.1582 9.98147 13.1117 9.98255 13.0629V8.91155C9.98254 8.86271 10.0016 8.81582 10.0358 8.7809C10.0699 8.74598 10.1164 8.72582 10.1652 8.72474H14.3166C14.3661 8.72474 14.4136 8.70506 14.4487 8.67002C14.4837 8.63499 14.5034 8.58747 14.5034 8.53793V7.70765C14.5034 7.65811 14.4837 7.61059 14.4487 7.57556C14.4136 7.54052 14.3661 7.52084 14.3166 7.52084H10.1652Z" fill="#00D0C8"/>
<path d="M17.3225 12.9336C16.3017 12.9328 15.3037 13.2347 14.4546 13.8012C13.6054 14.3677 12.9434 15.1733 12.5522 16.1162C12.161 17.059 12.0582 18.0966 12.2569 19.0979C12.4555 20.0991 12.9466 21.019 13.6681 21.7411C14.3896 22.4631 15.3091 22.955 16.3101 23.1544C17.3112 23.3539 18.349 23.2519 19.2921 22.8615C20.2352 22.4711 21.0414 21.8097 21.6086 20.961C22.1758 20.1123 22.4785 19.1145 22.4785 18.0937C22.4785 16.7259 21.9354 15.414 20.9686 14.4464C20.0018 13.4788 18.6903 12.9347 17.3225 12.9336Z" fill="#00D0C8"/>
<path d="M16.6829 34.8703H20.3361C20.3849 34.8692 20.4314 34.8491 20.4655 34.8142C20.4997 34.7793 20.5188 34.7324 20.5188 34.6835V31.0303C20.5188 30.9819 20.4995 30.9354 20.4653 30.9012C20.431 30.8669 20.3846 30.8477 20.3361 30.8477H16.6829C16.6341 30.8476 16.5872 30.8668 16.5523 30.9009C16.5173 30.935 16.4972 30.9815 16.4961 31.0303V34.6835C16.4961 34.7331 16.5158 34.7806 16.5508 34.8156C16.5858 34.8507 16.6334 34.8703 16.6829 34.8703Z" fill="#00D0C8"/>
<path d="M23.3848 45.9978L36.9763 8.75586H44.4862L30.8738 45.9978H23.3848Z" fill="#00D0C8"/>
</svg>
